<svg width="38" height="38" viewBox="0 0 38 38" fill="none" xmlns="http://www.w3.org/2000/svg">
<circle cx="19" cy="19" r="18" fill="#E6FFE6" stroke="#DE911F" stroke-width="2"/>
<path d="M11.7339 19.8125H9.08137H9V26.375L10.9438 24.5887C12.8482 27.2583 15.9707 29 19.5 29C24.855 29 29.2729 24.9916 29.9186 19.8125H27.2661C26.6413 23.5374 23.4021 26.375 19.5 26.375C16.7359 26.375 14.3025 24.9496 12.8981 22.7932L16.1413 19.8125H11.7339Z" fill="#DE911F"/>
<path d="M19.5 8C14.145 8 9.72711 12.0084 9.08136 17.1875H11.7339C12.3587 13.4626 15.5979 10.625 19.5 10.625C22.3468 10.625 24.8419 12.1357 26.2252 14.3997L23.4375 17.1875H26.0625H27.266H29.9186H30V10.625L28.1205 12.5045C26.2239 9.78106 23.07 8 19.5 8Z" fill="#DE911F"/>
</svg>
